<svg xmlns="http://www.w3.org/2000/svg" width="13px" height="13px">
    <path fill="rgb(71, 131, 246)" d="M11.927,6.550 L8.279,7.527 L9.256,11.175 C9.464,11.950 9.004,12.746 8.229,12.954 C7.454,13.162 6.658,12.702 6.450,11.927 L5.473,8.279 L1.825,9.256 C1.050,9.464 0.254,9.004 0.046,8.229 C-0.162,7.454 0.298,6.658 1.073,6.450 L4.721,5.473 L3.744,1.825 C3.536,1.050 3.996,0.254 4.771,0.046 C5.546,-0.162 6.342,0.298 6.550,1.073 L7.527,4.721 L11.175,3.744 C11.950,3.536 12.746,3.996 12.954,4.771 C13.161,5.546 12.702,6.342 11.927,6.550 Z"/>
</svg>