<svg xmlns="http://www.w3.org/2000/svg" width="21px" height="21px">
    <path fill="rgb(108, 95, 233)" d="M20.459,16.250 C19.769,17.446 18.240,17.855 17.044,17.165 L11.415,13.915 L8.165,19.544 C7.475,20.740 5.946,21.150 4.750,20.459 C3.554,19.769 3.145,18.240 3.835,17.044 L7.085,11.415 L1.456,8.165 C0.260,7.475 -0.150,5.946 0.541,4.750 C1.231,3.554 2.760,3.144 3.956,3.835 L9.585,7.085 L12.835,1.456 C13.525,0.260 15.054,-0.150 16.250,0.541 C17.446,1.231 17.855,2.760 17.165,3.956 L13.915,9.585 L19.544,12.835 C20.740,13.525 21.150,15.054 20.459,16.250 Z"/>
</svg>