<?xml version="1.0" encoding="UTF-8" standalone="no"?>
<svg
   xmlns:dc="http://purl.org/dc/elements/1.1/"
   xmlns:cc="http://creativecommons.org/ns#"
   xmlns:rdf="http://www.w3.org/1999/02/22-rdf-syntax-ns#"
   xmlns:svg="http://www.w3.org/2000/svg"
   xmlns="http://www.w3.org/2000/svg"
   xml:space="preserve"
   style="enable-background:new 0 0 106.8 94;"
   viewBox="0 0 106.8 94"
   y="0px"
   x="0px"
   id="Layer_1"
   version="1.1"><metadata
     id="metadata19"><rdf:RDF><cc:Work
         rdf:about=""><dc:format>image/svg+xml</dc:format><dc:type
           rdf:resource="http://purl.org/dc/dcmitype/StillImage" /><dc:title></dc:title></cc:Work></rdf:RDF></metadata><defs
     id="defs17" /><path
     style="fill:#908e8f;fill-opacity:1"
     id="path3"
     d="M62.6,73c-2.3-2.5-5.6-4-9.2-4s-6.9,1.6-9.2,4c-2.1,2.2-3.4,5.2-3.4,8.5c0,6.9,5.6,12.6,12.6,12.6s12.6-5.6,12.6-12.6  C65.9,78.2,64.6,75.2,62.6,73z" /><path
     style="fill:#908e8f;fill-opacity:1"
     id="path5"
     d="M19.4,56.1l9.7,9.7c13.4-13.4,35.1-13.4,48.5,0l0.1-0.1L54.1,42C41.5,41.9,29,46.5,19.4,56.1z" /><path
     style="fill:#908e8f;fill-opacity:1"
     id="path7"
     d="M0,36.7l9.7,9.7c9-9,20.1-14.7,31.7-16.9L30.2,18.2C19.2,21.8,8.8,27.9,0,36.7z" /><path
     style="fill:#908e8f;fill-opacity:1"
     id="path9"
     d="M97.1,46.4l9.7-9.7C87.8,17.7,61.3,11,36.9,16.4L49,28.5C66.2,27.2,83.9,33.2,97.1,46.4z" /><path
     style="fill:#908e8f;fill-opacity:1"
     id="path11"
     d="M87.3,56.1c-6.7-6.7-15-11.1-23.7-12.9L82,61.5L87.3,56.1z" /><rect
     style="fill:#908e8f;fill-opacity:1"
     id="rect13"
     height="114"
     width="8"
     transform="matrix(0.7071 -0.7071 0.7071 0.7071 -15.88 47.9292)"
     y="-13.9"
     x="45.9" /></svg>